<?xml version="1.0" standalone="no"?>
<!DOCTYPE svg PUBLIC "-//W3C//DTD SVG 20010904//EN"
 "http://www.w3.org/TR/2001/REC-SVG-20010904/DTD/svg10.dtd">
<svg version="1.0" xmlns="http://www.w3.org/2000/svg"
 width="351.000000pt" height="351.000000pt" viewBox="0 0 351.000000 351.000000"
 preserveAspectRatio="xMidYMid meet">
<metadata>
Created by potrace 1.14, written by Peter Selinger 2001-2017
</metadata>
<g transform="translate(0.000000,351.000000) scale(0.100000,-0.100000)"
fill="#000000" stroke="none">
<path d="M2988 3387 c-46 -38 -72 -57 -80 -57 -4 0 -8 -7 -8 -15 0 -8 -9 -15
-19 -15 -10 0 -21 -7 -25 -15 -3 -8 -12 -15 -20 -15 -8 0 -16 -4 -18 -9 -3 -9
-95 -81 -103 -81 -3 0 -14 -8 -24 -17 -35 -32 -55 -48 -61 -48 -5 1 -45 -33
-76 -62 -7 -7 -17 -13 -21 -13 -5 0 -20 -10 -33 -22 -14 -13 -27 -23 -30 -23
-3 0 -21 -15 -40 -33 -19 -17 -38 -32 -42 -32 -3 0 -13 -6 -20 -13 -7 -7 -29
-24 -48 -37 -19 -13 -44 -32 -54 -42 -10 -9 -24 -15 -29 -11 -6 3 -8 2 -5 -3
3 -5 0 -15 -8 -22 -8 -7 -14 -10 -14 -7 0 4 -7 0 -15 -7 -8 -7 -26 -22 -41
-33 -14 -11 -37 -30 -49 -42 -13 -13 -28 -23 -32 -23 -5 0 -23 -13 -41 -29
-17 -17 -32 -27 -32 -24 0 4 -9 -2 -19 -13 -11 -10 -38 -32 -60 -48 -23 -17
-41 -34 -41 -39 0 -4 -4 -6 -8 -3 -5 3 -23 -8 -40 -24 -18 -16 -32 -26 -32
-22 0 4 -4 2 -8 -3 -4 -6 -20 -21 -37 -33 -62 -46 -88 -67 -106 -84 -11 -10
-22 -18 -25 -17 -3 1 -16 -7 -27 -18 -12 -10 -38 -29 -57 -43 -19 -13 -37 -27
-40 -30 -3 -3 -21 -17 -40 -30 -19 -13 -39 -30 -43 -37 -4 -7 -14 -13 -21 -13
-8 0 -16 -7 -20 -15 -3 -8 -10 -15 -16 -15 -5 0 -19 -8 -29 -17 -26 -24 -35
-31 -106 -83 -33 -24 -63 -48 -67 -54 -5 -7 -8 -7 -8 -1 0 6 -6 3 -13 -5 -7
-9 -28 -27 -47 -40 -19 -13 -39 -30 -43 -37 -4 -7 -15 -13 -23 -13 -8 0 -17
-7 -20 -15 -4 -8 -10 -15 -16 -15 -5 0 -15 -6 -22 -12 -7 -7 -25 -22 -40 -33
-16 -11 -34 -26 -41 -32 -8 -7 -17 -13 -22 -13 -5 0 -15 -9 -23 -20 -8 -11
-19 -20 -24 -20 -5 0 -16 -7 -25 -15 -9 -8 -29 -26 -46 -40 l-30 -24 35 -1
c19 -1 257 -1 528 -1 389 0 492 -3 492 -13 0 -7 -13 -27 -30 -46 -16 -18 -27
-36 -25 -41 3 -4 2 -9 -3 -11 -11 -5 -75 -88 -67 -88 3 0 -8 -15 -24 -32 -17
-18 -31 -37 -31 -41 0 -9 -13 -26 -50 -65 -13 -15 -23 -29 -21 -32 4 -7 -32
-60 -41 -60 -5 0 -8 -7 -8 -15 0 -8 -4 -15 -8 -15 -5 0 -14 -11 -20 -25 -12
-26 -22 -40 -54 -76 -10 -10 -18 -23 -18 -27 0 -5 -9 -17 -20 -27 -11 -10 -20
-24 -20 -31 0 -7 -3 -14 -7 -16 -5 -2 -21 -23 -37 -48 -16 -25 -35 -49 -43
-53 -7 -5 -11 -12 -8 -17 3 -5 -3 -15 -13 -22 -11 -7 -19 -15 -19 -18 1 -7
-34 -60 -55 -85 -10 -11 -17 -23 -17 -28 0 -4 -12 -20 -26 -35 -14 -15 -25
-32 -25 -38 0 -7 -7 -15 -16 -18 -9 -4 -14 -9 -10 -13 3 -3 -3 -13 -14 -20
-11 -8 -18 -18 -15 -22 2 -5 -6 -18 -20 -31 -13 -12 -29 -35 -35 -51 -7 -16
-16 -29 -21 -29 -4 0 -16 -16 -25 -35 -9 -19 -20 -35 -25 -35 -5 0 -9 -7 -9
-15 0 -9 -7 -18 -15 -21 -8 -4 -15 -10 -15 -15 0 -6 -9 -19 -20 -31 -11 -12
-20 -28 -20 -35 0 -7 -5 -13 -11 -13 -5 0 -7 -4 -4 -10 3 -5 -2 -10 -11 -10
-10 0 -15 -3 -11 -6 3 -3 -3 -15 -13 -27 -11 -11 -17 -24 -14 -29 3 -4 1 -8
-4 -8 -11 0 -53 -62 -47 -69 2 -2 20 10 40 28 20 17 33 31 29 31 -10 0 59 60
69 60 5 0 6 4 2 9 -3 5 4 12 15 16 11 4 18 10 15 15 -3 5 4 11 15 15 11 4 19
9 17 13 -1 4 12 21 30 39 18 17 33 30 33 28 0 -2 17 13 38 34 21 20 36 39 35
43 -2 4 6 9 17 13 11 3 20 10 20 14 0 4 29 37 65 73 36 37 65 65 65 63 0 -2
13 8 28 23 15 15 27 28 26 30 -1 2 24 28 57 58 32 30 56 54 54 54 -3 0 17 20
44 44 27 24 48 46 47 48 -2 3 155 159 171 168 4 3 8 7 7 10 0 3 24 28 53 57
29 28 53 49 53 46 0 -2 7 2 15 11 8 8 15 17 15 20 0 10 89 93 95 88 3 -3 5 0
5 6 0 14 268 281 275 274 3 -3 5 -1 5 5 0 6 97 108 215 226 118 118 215 220
215 225 0 6 -161 10 -442 10 -335 -1 -442 2 -440 11 1 7 40 50 86 96 47 46 89
93 96 104 6 12 15 19 21 16 5 -4 9 -1 9 6 0 6 48 58 106 115 58 57 103 104 99
104 -3 0 49 56 117 124 134 135 158 161 158 176 0 6 3 9 8 8 4 -2 40 31 81 72
40 41 77 74 82 72 5 -1 8 1 7 5 -4 11 45 59 55 55 5 -1 6 2 3 7 -4 5 13 30 38
55 24 25 41 48 38 51 -3 3 -1 5 4 5 10 0 110 92 106 98 -1 1 0 2 3 2 10 0 42
35 38 43 -2 4 3 7 12 7 9 0 13 4 10 10 -3 5 3 15 15 22 11 7 20 18 20 25 0 7
4 12 9 11 5 -2 9 1 9 5 1 5 14 18 29 30 28 21 63 57 63 64 0 8 -17 0 -42 -20z"/>
<path d="M1669 3296 c-2 -2 -29 -7 -59 -10 -96 -11 -165 -22 -165 -26 0 -1 -9
-3 -20 -5 -31 -5 -57 -12 -86 -23 -15 -6 -30 -8 -33 -5 -3 4 -6 0 -6 -7 0 -7
-3 -10 -7 -7 -3 4 -12 2 -20 -4 -7 -6 -13 -8 -13 -4 0 4 -11 0 -25 -9 -14 -9
-25 -14 -25 -11 0 2 -26 -9 -59 -25 -32 -17 -64 -30 -70 -30 -6 0 -11 -4 -11
-10 0 -5 -9 -10 -20 -10 -11 0 -20 -3 -20 -7 0 -5 -24 -21 -53 -37 -60 -34
-157 -107 -157 -119 0 -4 -5 -5 -10 -2 -6 3 -13 -1 -16 -9 -3 -8 -14 -18 -25
-21 -10 -4 -19 -10 -19 -14 0 -4 -18 -27 -40 -51 -22 -24 -40 -40 -40 -36 0 4
-20 -18 -45 -48 -25 -31 -45 -60 -45 -66 0 -5 -6 -9 -12 -7 -7 1 -12 -4 -11
-10 2 -7 -1 -13 -6 -13 -5 0 -13 -9 -16 -20 -3 -11 -12 -26 -18 -33 -12 -13
-21 -28 -65 -106 -14 -25 -29 -47 -34 -49 -4 -2 -8 -11 -8 -20 0 -9 -7 -30
-15 -46 -8 -15 -15 -35 -15 -42 0 -8 -5 -14 -11 -14 -6 0 -9 -7 -5 -15 3 -8 1
-15 -4 -15 -6 0 -10 -10 -10 -23 0 -13 -4 -27 -9 -32 -9 -9 -17 -39 -26 -90
-2 -11 -4 -20 -5 -20 -2 0 -4 -9 -6 -20 -2 -11 -8 -39 -14 -63 -6 -24 -8 -47
-5 -52 3 -5 1 -11 -3 -14 -11 -6 -16 -100 -14 -231 2 -144 3 -154 15 -215 6
-30 9 -65 8 -77 -1 -13 1 -23 6 -23 4 0 9 -10 10 -23 2 -23 10 -62 13 -62 2 0
11 -38 12 -52 1 -7 5 -13 10 -13 4 0 8 -11 8 -25 0 -14 4 -25 8 -25 4 0 8 -9
9 -19 1 -11 11 -38 22 -62 12 -23 21 -49 21 -56 0 -7 4 -13 9 -13 5 0 14 -12
20 -27 7 -16 17 -37 24 -48 42 -69 62 -101 67 -105 3 -3 14 -18 23 -33 23 -35
43 -60 85 -104 17 -19 32 -37 32 -39 0 -7 77 -84 85 -84 4 0 20 -13 35 -30 15
-16 30 -30 33 -30 3 0 23 -16 44 -35 21 -19 44 -35 51 -35 6 0 12 -5 12 -10 0
-18 24 -6 46 22 11 15 24 25 27 22 4 -4 4 3 2 15 -2 12 0 19 5 16 5 -3 11 4
15 15 3 11 10 20 14 20 8 0 31 44 31 60 0 6 -5 10 -11 10 -6 0 -16 6 -23 12
-7 7 -25 22 -41 33 -26 19 -208 198 -230 227 -6 7 -22 29 -35 48 -13 19 -30
41 -36 47 -7 7 -25 39 -41 70 -15 32 -31 60 -34 63 -10 9 -77 184 -94 245 -15
58 -19 78 -31 155 -9 63 -10 325 0 338 5 7 6 15 3 18 -3 3 1 33 9 66 8 34 12
63 9 66 -3 3 -1 10 4 16 4 6 16 38 26 71 10 33 33 92 52 132 18 39 33 76 33
82 0 6 5 11 11 11 5 0 7 4 4 10 -3 6 -2 10 3 10 9 0 37 50 34 63 -1 4 2 7 7 7
4 0 20 18 35 40 30 45 59 81 96 119 14 14 35 39 48 55 12 16 22 25 22 21 0 -4
17 9 37 30 21 20 50 44 66 53 15 9 27 20 27 24 0 4 7 8 15 8 8 0 15 3 15 8 0
4 16 16 36 27 19 10 45 27 56 37 12 10 28 18 36 18 9 0 24 8 34 17 10 9 26 17
36 18 9 1 32 9 50 18 17 10 32 15 32 11 0 -4 6 -2 13 4 15 13 107 40 172 52
28 5 61 12 75 15 22 6 348 10 360 5 3 -2 14 -4 25 -5 48 -8 83 -15 120 -25 22
-6 50 -13 61 -15 12 -1 31 -8 43 -14 11 -7 21 -8 21 -4 0 4 4 2 9 -5 4 -7 18
-14 29 -15 12 -1 22 -5 22 -9 0 -4 8 -8 18 -8 10 0 27 -7 39 -15 16 -12 27
-12 52 -4 17 6 28 15 25 20 -3 5 1 9 8 9 8 0 21 9 30 20 10 10 42 36 73 56 30
20 55 41 55 46 0 5 5 6 10 3 13 -8 13 1 -1 27 -6 11 -14 17 -18 12 -3 -5 -17
-14 -31 -20 -21 -9 -35 -6 -85 17 -49 23 -90 41 -125 54 -3 1 -12 4 -20 8 -50
19 -108 38 -130 41 -14 3 -25 5 -25 7 0 1 -9 3 -20 4 -11 2 -33 6 -50 10 -16
4 -41 9 -55 11 -14 2 -38 6 -55 9 -36 7 -301 16 -306 11z"/>
<path d="M2687 2982 c-20 -15 -39 -35 -43 -45 -3 -10 -8 -16 -12 -13 -3 4 -14
-6 -24 -21 -10 -16 -18 -23 -19 -18 0 6 -4 1 -8 -10 -8 -21 6 -55 24 -55 5 0
29 -20 53 -45 23 -24 54 -53 68 -64 14 -11 25 -22 25 -25 -2 -20 1 -25 19 -31
11 -4 18 -11 15 -16 -4 -5 1 -12 9 -15 9 -3 13 -10 10 -15 -3 -5 2 -9 11 -9 9
0 14 -4 11 -8 -3 -5 6 -20 20 -35 14 -15 22 -27 19 -27 -4 0 5 -14 20 -31 14
-18 24 -38 21 -45 -3 -7 2 -15 10 -18 8 -3 14 -12 14 -21 0 -8 5 -15 11 -15 5
0 8 -4 4 -9 -3 -5 1 -15 8 -23 7 -7 19 -33 27 -58 7 -25 17 -49 21 -55 3 -5
12 -34 20 -62 7 -29 15 -53 18 -53 3 0 7 -21 9 -46 1 -25 6 -54 11 -63 6 -10
6 -23 1 -31 -6 -9 -5 -17 2 -21 16 -10 11 -255 -6 -354 -24 -129 -38 -185 -48
-185 -5 0 -7 -4 -4 -9 7 -11 -59 -174 -72 -179 -6 -2 -8 -10 -5 -18 3 -8 0
-14 -6 -14 -6 0 -11 -7 -11 -15 0 -8 -4 -15 -9 -15 -7 0 -15 -18 -20 -45 -1
-3 -9 -13 -18 -23 -31 -33 -53 -62 -53 -70 0 -5 -11 -18 -25 -30 -14 -12 -25
-29 -25 -37 0 -8 -3 -14 -7 -13 -5 1 -42 -31 -84 -72 -75 -73 -180 -155 -194
-151 -4 1 -12 -4 -18 -13 -7 -8 -19 -16 -27 -18 -8 -2 -19 -8 -25 -15 -5 -7
-17 -13 -25 -15 -8 -2 -21 -9 -28 -16 -8 -7 -18 -10 -23 -7 -5 4 -9 2 -9 -3 0
-5 -10 -13 -22 -17 -13 -4 -25 -8 -28 -9 -34 -16 -67 -28 -75 -30 -5 -1 -41
-12 -79 -24 -71 -23 -95 -28 -161 -37 -169 -23 -238 -22 -415 2 -60 8 -75 10
-90 15 -69 23 -169 51 -186 54 -14 1 -26 -6 -34 -22 -7 -13 -21 -26 -32 -30
-10 -3 -18 -12 -18 -20 0 -8 -6 -13 -12 -12 -7 2 -12 -2 -11 -9 2 -6 -6 -15
-17 -18 -11 -4 -18 -11 -15 -16 4 -5 1 -9 -5 -9 -18 0 -69 -64 -70 -88 0 -13
-7 -30 -15 -39 -8 -8 -12 -19 -9 -24 9 -16 46 14 70 55 11 20 24 33 27 29 4
-3 7 -1 7 6 0 11 49 5 60 -8 6 -7 28 -13 48 -14 6 0 12 -4 12 -9 0 -4 3 -7 8
-6 4 1 19 -2 33 -6 14 -4 34 -9 45 -11 10 -2 19 -4 19 -5 0 -2 32 -10 55 -14
8 -2 42 -9 75 -16 97 -21 529 -18 565 5 4 2 22 7 41 10 19 4 39 8 44 9 46 12
72 20 80 25 11 6 32 12 53 13 6 1 12 4 12 8 0 4 6 7 14 7 7 0 34 9 59 21 26
12 52 23 59 24 7 2 19 9 26 16 8 7 18 10 23 7 5 -4 9 -3 9 2 0 4 26 21 58 38
31 16 63 35 70 42 7 7 20 13 28 13 7 0 19 9 26 20 7 11 18 20 24 20 6 0 19 9
29 20 10 11 22 17 28 13 5 -3 7 -1 3 5 -3 6 3 13 14 17 11 4 18 10 15 14 -2 5
7 13 20 19 14 7 25 16 25 22 0 6 3 9 8 7 4 -2 15 4 25 15 9 10 14 18 10 18 -5
0 4 8 20 18 15 10 25 21 22 24 -3 2 10 18 27 35 36 34 68 70 68 79 0 2 4 10
10 17 48 59 60 77 60 92 0 9 4 14 9 11 8 -6 77 122 73 137 -1 4 2 7 8 7 5 0
14 18 20 40 6 22 16 40 22 40 6 0 9 3 6 6 -4 3 0 22 9 42 15 37 24 67 25 90 1
6 5 12 10 12 4 0 7 3 6 8 -1 4 4 34 12 67 7 33 14 76 15 96 1 19 5 41 9 47 21
35 15 373 -9 472 -4 14 -7 32 -9 40 -13 85 -20 110 -28 110 -5 0 -6 5 -3 10 3
6 1 10 -5 10 -6 0 -9 4 -6 8 9 15 -67 211 -86 223 -5 3 -9 8 -7 10 4 8 -13 49
-21 49 -5 0 -12 10 -16 23 -8 25 -64 110 -76 115 -4 2 -8 8 -8 13 0 10 -26 44
-52 68 -10 8 -18 21 -18 28 0 7 -5 13 -11 13 -5 0 -7 5 -4 10 3 6 1 10 -6 10
-7 0 -47 36 -90 80 -44 44 -79 77 -79 73 0 -3 -6 0 -13 6 -11 8 -22 4 -50 -17z"/>
</g>
</svg>
